<svg width="195.4" height="75.301" viewBox="0 0 195.4 75.301" xmlns="http://www.w3.org/2000/svg"><g id="svgGroup" stroke-linecap="round" fill-rule="nonzero" font-size="9pt" stroke="#000" stroke-width="0mm" fill="#ef4444" style="stroke:#000;stroke-width:0mm;fill:#ef4444"><path d="M 138.3 40.9 L 138.3 48.2 L 139.4 71.7 L 126 74.2 L 127.2 49.9 A 208.098 208.098 0 0 0 126.484 37.576 Q 125.963 31.754 125.115 26.586 A 126.465 126.465 0 0 0 125 25.9 L 137.1 23.3 A 173.937 173.937 0 0 1 138.061 33.912 A 159.286 159.286 0 0 1 138.1 34.6 Q 139.6 32.6 141.5 30.65 A 16.538 16.538 0 0 1 142.902 29.383 Q 144.431 28.138 146.728 26.719 A 61.083 61.083 0 0 1 147.5 26.25 Q 151.6 23.8 155.8 23.8 Q 160 23.8 162.9 26.5 A 11.468 11.468 0 0 1 165.802 30.905 A 16.004 16.004 0 0 1 166.6 33.9 A 40.831 40.831 0 0 1 171.154 29.132 Q 177.224 23.8 183.4 23.8 A 12.762 12.762 0 0 1 187.135 24.321 A 9.924 9.924 0 0 1 191.8 27.35 Q 194.9 30.9 194.9 37 L 194.3 48.2 L 195.4 72.2 L 181.9 74.7 L 183.1 48.9 Q 183.1 42.435 182.046 40.008 A 4.791 4.791 0 0 0 181.9 39.7 Q 180.7 37.4 176.4 37.4 Q 173.124 37.4 169.208 39.316 A 30.714 30.714 0 0 0 166.7 40.7 L 166.3 48.2 L 167.4 72.2 L 153.9 74.7 L 155.1 48.9 Q 155.1 42.435 154.046 40.008 A 4.791 4.791 0 0 0 153.9 39.7 Q 152.752 37.501 148.677 37.405 A 16.049 16.049 0 0 0 148.3 37.4 A 13.514 13.514 0 0 0 144.527 37.978 Q 142.895 38.453 141.128 39.318 A 31.52 31.52 0 0 0 138.3 40.9 Z M 0 65.1 L 7.8 54.3 A 38.32 38.32 0 0 0 12.98 58.691 Q 18.89 62.8 24.8 62.8 A 15.34 15.34 0 0 0 27.722 62.538 Q 30.147 62.068 31.85 60.75 A 7.024 7.024 0 0 0 33.638 58.767 A 6.411 6.411 0 0 0 34.5 55.45 Q 34.5 52.2 31.3 49.95 Q 28.2 47.771 23.833 46.107 A 47.276 47.276 0 0 0 23.55 46 Q 19 44.3 14.5 42.15 Q 10 40 6.8 36 A 14.543 14.543 0 0 1 3.695 28.209 A 18.863 18.863 0 0 1 3.6 26.3 A 19.466 19.466 0 0 1 9.342 12.426 A 27.173 27.173 0 0 1 11.1 10.75 Q 18.6 4.2 28.9 4.2 Q 33.6 4.2 38 5.2 Q 42.4 6.2 46.5 8.1 L 39.7 22.7 Q 37.567 21.024 34.243 19.551 A 44.963 44.963 0 0 0 32.05 18.65 A 34.194 34.194 0 0 0 28.65 17.541 Q 26.95 17.09 25.428 16.913 A 16.325 16.325 0 0 0 23.55 16.8 A 12.413 12.413 0 0 0 21.058 17.036 Q 19.508 17.354 18.3 18.099 A 7.305 7.305 0 0 0 17.65 18.55 Q 15.4 20.3 15.4 23.2 Q 15.4 25.811 17.994 27.896 A 11.845 11.845 0 0 0 18.6 28.35 Q 21.7 30.53 26.067 32.193 A 47.276 47.276 0 0 0 26.35 32.3 Q 30.9 34 35.45 36.05 Q 40 38.1 43.2 42.1 A 14.543 14.543 0 0 1 46.305 49.891 A 18.863 18.863 0 0 1 46.4 51.8 A 21.429 21.429 0 0 1 40.451 66.68 A 29.145 29.145 0 0 1 38.9 68.25 Q 31.4 75.3 21.4 75.3 A 26.587 26.587 0 0 1 13.5 74.161 A 23.207 23.207 0 0 1 8.1 71.7 Q 3.68 69.014 1.513 66.853 A 13.212 13.212 0 0 1 0.9 66.2 L 0 65.1 Z M 95.7 44.7 L 102.5 44.7 L 102.5 43 Q 102.5 38.91 101.106 36.979 A 4.282 4.282 0 0 0 100.5 36.3 A 5.293 5.293 0 0 0 98.908 35.351 Q 97.308 34.711 94.771 34.552 A 28.462 28.462 0 0 0 93 34.5 A 13.902 13.902 0 0 0 91.032 34.651 Q 90.04 34.793 88.928 35.07 A 29.105 29.105 0 0 0 87.55 35.45 A 33.531 33.531 0 0 0 84.65 36.482 Q 83.183 37.077 81.582 37.859 A 61.38 61.38 0 0 0 80.5 38.4 L 77.6 30.5 Q 81.627 27.691 87.277 25.407 A 69.256 69.256 0 0 1 88.05 25.1 Q 94.057 22.756 98.013 22.702 A 13.585 13.585 0 0 1 98.2 22.7 Q 113.9 22.7 113.9 37.9 L 113.9 57.5 A 21.378 21.378 0 0 0 114.57 62.649 Q 115.155 65.008 116.252 67.556 A 42.933 42.933 0 0 0 117.4 70 L 106.8 74.5 A 71.385 71.385 0 0 1 104.983 70.765 Q 103.813 68.157 103.1 65.9 A 22.337 22.337 0 0 1 99.379 70.277 A 14.845 14.845 0 0 1 89.2 74.2 A 15.145 15.145 0 0 1 84.605 73.533 A 12.315 12.315 0 0 1 79.55 70.45 A 12.498 12.498 0 0 1 76.131 63.891 A 18.081 18.081 0 0 1 75.8 60.35 Q 75.8 54 81.6 49.35 Q 87.4 44.7 95.7 44.7 Z M 102.5 59.9 L 102.5 53.2 A 66.506 66.506 0 0 0 99.383 52.567 Q 96.382 52.038 94.205 52.003 A 18.915 18.915 0 0 0 93.9 52 A 10.32 10.32 0 0 0 91.523 52.249 Q 88.309 53.013 87.728 56.117 A 8.071 8.071 0 0 0 87.6 57.6 A 8.532 8.532 0 0 0 87.82 59.594 A 5.902 5.902 0 0 0 89.2 62.25 A 5.299 5.299 0 0 0 92.843 63.979 A 7.266 7.266 0 0 0 93.4 64 Q 97.4 64 102.5 59.9 Z M 54.8 25.8 L 68.2 23.3 L 67 48.2 L 68.1 71.7 L 54.7 74.2 L 55.9 49.9 L 54.8 25.8 Z M 56.02 3.409 A 10.927 10.927 0 0 1 56.7 2.65 Q 59.3 0 62.7 0 A 9.985 9.985 0 0 1 64.748 0.197 Q 66.687 0.604 67.9 1.85 Q 69.366 3.357 69.638 6.093 A 13.239 13.239 0 0 1 69.7 7.4 Q 69.7 11.1 67.15 13.75 A 9.14 9.14 0 0 1 64.856 15.515 A 7.577 7.577 0 0 1 61.25 16.4 A 8.194 8.194 0 0 1 58.985 16.104 A 6.073 6.073 0 0 1 56 14.2 A 7.723 7.723 0 0 1 54.211 10.205 A 10.491 10.491 0 0 1 54.1 8.65 A 8.11 8.11 0 0 1 56.02 3.409 Z"/></g></svg>